<?xml version="1.0" encoding="UTF-8" ?>
<!DOCTYPE svg PUBLIC "-//W3C//DTD SVG 1.1//EN" "http://www.w3.org/Graphics/SVG/1.1/DTD/svg11.dtd">
<svg width="1254pt" height="610pt" viewBox="0 0 1254 610" version="1.1" xmlns="http://www.w3.org/2000/svg">
<g id="#232427ff">
<path fill="#232427" opacity="1.00" d=" M 0.00 0.00 L 1254.00 0.00 L 1254.00 610.00 L 0.00 610.00 L 0.00 0.00 M 895.09 206.04 C 881.98 219.28 868.66 232.33 855.62 245.64 C 841.81 259.72 833.80 279.26 833.87 298.99 C 833.10 327.33 849.78 355.01 874.80 368.16 C 889.20 375.78 906.03 378.96 922.18 376.55 C 938.80 374.28 954.67 366.47 966.36 354.41 C 981.04 340.06 989.44 319.53 989.04 299.01 C 989.12 285.75 985.37 272.56 978.83 261.07 C 975.37 255.19 971.56 249.36 966.22 245.01 C 961.50 249.36 956.93 253.86 952.64 258.64 C 960.68 267.38 966.79 278.17 968.61 290.02 C 971.46 306.50 966.71 324.19 955.83 336.91 C 945.32 349.41 929.41 357.33 913.02 357.56 C 899.66 358.01 886.22 353.54 875.73 345.27 C 864.33 336.34 856.32 323.03 854.23 308.66 C 851.93 294.18 855.26 278.79 863.73 266.77 C 868.41 259.90 874.75 254.45 880.52 248.54 C 889.70 239.37 898.85 230.15 908.11 221.06 C 909.67 219.39 911.61 217.58 911.40 215.07 C 911.61 206.82 911.56 198.56 911.29 190.31 C 905.55 195.19 900.47 200.78 895.09 206.04 M 935.41 221.41 C 928.48 223.51 926.39 233.57 931.53 238.50 C 936.67 243.63 947.02 241.08 948.70 233.84 C 951.21 226.38 942.69 218.30 935.41 221.41 M 256.24 249.27 C 252.81 250.14 250.38 253.36 250.27 256.87 C 249.66 264.89 250.05 272.96 250.01 281.00 C 249.86 285.37 251.51 290.56 256.24 291.76 C 265.62 293.40 275.23 291.24 284.64 292.68 C 286.98 293.02 289.55 294.50 289.91 297.06 C 291.35 305.92 289.62 314.94 290.70 323.83 C 291.18 327.54 294.05 331.22 297.98 331.49 C 305.61 332.20 313.29 331.70 320.94 331.83 C 324.73 331.70 329.26 332.08 332.05 328.97 C 334.81 326.07 334.45 321.74 334.53 318.03 C 334.27 310.66 334.90 303.27 334.16 295.92 C 333.92 292.16 330.75 288.88 327.03 288.45 C 318.42 287.25 309.71 288.96 301.10 287.82 C 298.54 287.48 295.61 286.25 294.85 283.54 C 292.08 273.93 294.75 263.77 292.85 254.06 C 291.37 249.15 285.42 248.28 281.02 248.45 C 272.77 248.84 264.39 247.69 256.24 249.27 M 307.37 250.47 C 304.05 252.30 303.95 256.70 304.34 260.01 C 305.20 265.35 302.67 271.26 305.79 276.13 C 308.39 278.86 312.56 278.27 315.98 278.37 C 320.50 278.14 325.27 279.09 329.59 277.30 C 332.19 275.99 332.72 272.76 332.58 270.12 C 332.25 264.20 333.52 258.08 331.71 252.31 C 329.20 249.04 324.64 249.54 320.99 249.50 C 316.46 249.70 311.73 248.91 307.37 250.47 M 354.01 249.50 C 354.00 270.35 354.02 291.20 354.00 312.04 C 353.89 319.46 358.18 326.91 364.93 330.14 C 372.46 333.66 380.97 332.18 388.99 332.46 C 388.99 329.30 388.99 326.13 388.99 322.97 C 382.82 322.86 376.07 323.91 370.53 320.51 C 365.58 317.62 364.13 311.46 364.02 306.12 C 363.97 296.17 364.01 286.22 364.00 276.27 C 371.65 276.24 379.30 276.27 386.95 276.27 C 386.96 273.06 386.96 269.85 386.95 266.64 C 379.30 266.63 371.65 266.66 364.00 266.63 C 363.99 260.92 364.00 255.21 363.99 249.50 C 360.66 249.50 357.33 249.49 354.01 249.50 M 680.64 257.37 C 670.66 283.64 660.52 309.85 650.52 336.11 C 653.10 336.06 655.69 336.01 658.29 335.98 C 668.22 309.72 678.49 283.59 688.41 257.33 C 685.82 257.33 683.23 257.34 680.64 257.37 M 471.37 273.35 C 471.37 271.12 471.36 268.89 471.36 266.67 C 467.82 266.65 464.28 266.65 460.74 266.66 C 460.72 288.60 460.72 310.53 460.74 332.47 C 464.28 332.48 467.82 332.48 471.37 332.47 C 471.40 319.37 471.35 306.27 471.39 293.16 C 471.53 282.57 482.35 273.58 492.81 275.50 C 502.14 276.72 509.05 285.83 509.11 294.99 C 509.20 307.53 509.11 320.07 509.12 332.61 C 512.49 332.52 515.87 332.48 519.25 332.49 C 519.31 319.67 519.25 306.84 519.30 294.02 C 519.37 284.79 527.12 276.47 536.23 275.41 C 546.75 273.91 557.45 283.25 557.09 293.93 C 557.06 306.77 557.06 319.61 557.09 332.46 C 560.61 332.48 564.13 332.47 567.65 332.47 C 567.65 319.35 567.77 306.23 567.68 293.12 C 567.26 279.74 556.37 267.69 543.07 266.03 C 532.19 264.37 521.82 270.32 514.76 278.19 C 509.74 272.88 504.03 267.62 496.52 266.41 C 487.52 263.90 478.54 268.18 471.37 273.35 M 394.66 266.68 C 395.74 270.69 397.14 274.61 398.65 278.49 C 405.57 296.51 412.34 314.59 419.29 332.60 C 421.97 332.50 424.67 332.48 427.36 332.47 C 435.54 310.51 444.39 288.80 452.17 266.69 C 448.88 266.64 445.59 266.65 442.31 266.73 C 435.70 283.80 429.97 301.21 423.32 318.25 C 416.86 301.13 410.64 283.93 404.56 266.68 C 401.25 266.65 397.96 266.65 394.66 266.68 M 255.61 307.96 C 255.43 312.31 255.46 316.68 255.59 321.04 C 255.71 323.15 256.48 325.88 258.81 326.46 C 264.39 327.58 270.19 327.67 275.81 326.78 C 277.78 326.53 279.77 325.01 279.94 322.94 C 280.39 317.98 280.25 313.00 280.18 308.03 C 280.37 305.78 278.57 304.22 277.37 302.56 C 271.60 302.69 265.82 302.42 260.04 302.65 C 257.25 302.57 255.69 305.51 255.61 307.96 Z" />
</g>
<g id="#ef4c2dff">
<path fill="#ef4c2d" opacity="1.00" d=" M 895.09 206.04 C 900.47 200.78 905.55 195.19 911.29 190.31 C 911.56 198.56 911.61 206.82 911.40 215.07 C 911.61 217.58 909.67 219.39 908.11 221.06 C 898.85 230.15 889.70 239.37 880.52 248.54 C 874.75 254.45 868.41 259.90 863.73 266.77 C 855.26 278.79 851.93 294.18 854.23 308.66 C 856.32 323.03 864.33 336.34 875.73 345.27 C 886.22 353.54 899.66 358.01 913.02 357.56 C 929.41 357.33 945.32 349.41 955.83 336.91 C 966.71 324.19 971.46 306.50 968.61 290.02 C 966.79 278.17 960.68 267.38 952.64 258.64 C 956.93 253.86 961.50 249.36 966.22 245.01 C 971.56 249.36 975.37 255.19 978.83 261.07 C 985.37 272.56 989.12 285.75 989.04 299.01 C 989.44 319.53 981.04 340.06 966.36 354.41 C 954.67 366.47 938.80 374.28 922.18 376.55 C 906.03 378.96 889.20 375.78 874.80 368.16 C 849.78 355.01 833.10 327.33 833.87 298.99 C 833.80 279.26 841.81 259.72 855.62 245.64 C 868.66 232.33 881.98 219.28 895.09 206.04 Z" />
<path fill="#ef4c2d" opacity="1.00" d=" M 935.41 221.41 C 942.69 218.30 951.21 226.38 948.70 233.84 C 947.02 241.08 936.67 243.63 931.53 238.50 C 926.39 233.57 928.48 223.51 935.41 221.41 Z" />
</g>
<g id="#000066ff">
<path fill="#000066" opacity="1.00" d=" M 256.24 249.27 C 264.39 247.69 272.77 248.84 281.02 248.45 C 285.42 248.28 291.37 249.15 292.85 254.06 C 294.75 263.77 292.08 273.93 294.85 283.54 C 295.61 286.25 298.54 287.48 301.10 287.82 C 309.71 288.96 318.42 287.25 327.03 288.45 C 330.75 288.88 333.92 292.16 334.16 295.92 C 334.90 303.27 334.27 310.66 334.53 318.03 C 334.45 321.74 334.81 326.07 332.05 328.97 C 329.26 332.08 324.73 331.70 320.94 331.83 C 313.29 331.70 305.61 332.20 297.98 331.49 C 294.05 331.22 291.18 327.54 290.70 323.83 C 289.62 314.94 291.35 305.92 289.91 297.06 C 289.55 294.50 286.98 293.02 284.64 292.68 C 275.23 291.24 265.62 293.40 256.24 291.76 C 251.51 290.56 249.86 285.37 250.01 281.00 C 250.05 272.96 249.66 264.89 250.27 256.87 C 250.38 253.36 252.81 250.14 256.24 249.27 Z" />
</g>
<g id="#ffffffff">
<path fill="#ffffff" opacity="1.00" d=" M 307.37 250.47 C 311.73 248.91 316.46 249.70 320.99 249.50 C 324.64 249.54 329.20 249.04 331.71 252.31 C 333.52 258.08 332.25 264.20 332.58 270.12 C 332.72 272.76 332.19 275.99 329.59 277.30 C 325.27 279.09 320.50 278.14 315.98 278.37 C 312.56 278.27 308.39 278.86 305.79 276.13 C 302.67 271.26 305.20 265.35 304.34 260.01 C 303.95 256.70 304.05 252.30 307.37 250.47 Z" />
<path fill="#ffffff" opacity="1.00" d=" M 354.01 249.50 C 357.33 249.49 360.66 249.50 363.99 249.50 C 364.00 255.21 363.99 260.92 364.00 266.63 C 371.65 266.66 379.30 266.63 386.95 266.64 C 386.96 269.85 386.96 273.06 386.95 276.27 C 379.30 276.27 371.65 276.24 364.00 276.27 C 364.01 286.22 363.97 296.17 364.02 306.12 C 364.13 311.46 365.58 317.62 370.53 320.51 C 376.07 323.91 382.82 322.86 388.99 322.97 C 388.99 326.13 388.99 329.30 388.99 332.46 C 380.97 332.18 372.46 333.66 364.93 330.14 C 358.18 326.91 353.89 319.46 354.00 312.04 C 354.02 291.20 354.00 270.35 354.01 249.50 Z" />
<path fill="#ffffff" opacity="1.00" d=" M 680.64 257.37 C 683.23 257.34 685.82 257.33 688.41 257.33 C 678.49 283.59 668.22 309.72 658.29 335.98 C 655.69 336.01 653.10 336.06 650.52 336.11 C 660.52 309.85 670.66 283.64 680.64 257.37 Z" />
<path fill="#ffffff" opacity="1.00" d=" M 471.37 273.35 C 478.54 268.18 487.52 263.90 496.52 266.41 C 504.03 267.62 509.74 272.88 514.76 278.19 C 521.82 270.32 532.19 264.37 543.07 266.03 C 556.37 267.69 567.26 279.74 567.68 293.12 C 567.77 306.23 567.65 319.35 567.65 332.47 C 564.13 332.47 560.61 332.48 557.09 332.46 C 557.06 319.61 557.06 306.77 557.09 293.93 C 557.45 283.25 546.75 273.91 536.23 275.41 C 527.12 276.47 519.37 284.79 519.30 294.02 C 519.25 306.84 519.31 319.67 519.25 332.49 C 515.87 332.48 512.49 332.52 509.12 332.61 C 509.11 320.07 509.20 307.53 509.11 294.99 C 509.05 285.83 502.14 276.72 492.81 275.50 C 482.35 273.58 471.53 282.57 471.39 293.16 C 471.35 306.27 471.40 319.37 471.37 332.47 C 467.82 332.48 464.28 332.48 460.74 332.47 C 460.72 310.53 460.72 288.60 460.74 266.66 C 464.28 266.65 467.82 266.65 471.36 266.67 C 471.36 268.89 471.37 271.12 471.37 273.35 Z" />
<path fill="#ffffff" opacity="1.00" d=" M 394.66 266.68 C 397.96 266.65 401.25 266.65 404.56 266.68 C 410.64 283.93 416.86 301.13 423.32 318.25 C 429.97 301.21 435.70 283.80 442.31 266.73 C 445.59 266.65 448.88 266.64 452.17 266.69 C 444.39 288.80 435.54 310.51 427.36 332.47 C 424.67 332.48 421.97 332.50 419.29 332.60 C 412.34 314.59 405.57 296.51 398.65 278.49 C 397.14 274.61 395.74 270.69 394.66 266.68 Z" />
<path fill="#ffffff" opacity="1.00" d=" M 255.61 307.96 C 255.69 305.51 257.25 302.57 260.04 302.65 C 265.82 302.42 271.60 302.69 277.37 302.56 C 278.57 304.22 280.37 305.78 280.18 308.03 C 280.25 313.00 280.39 317.98 279.94 322.94 C 279.77 325.01 277.78 326.53 275.81 326.78 C 270.19 327.67 264.39 327.58 258.81 326.46 C 256.48 325.88 255.71 323.15 255.59 321.04 C 255.46 316.68 255.43 312.31 255.61 307.96 Z" />
</g>
</svg>
