<?xml version="1.0" encoding="UTF-8" ?>
<!DOCTYPE svg PUBLIC "-//W3C//DTD SVG 1.1//EN" "http://www.w3.org/Graphics/SVG/1.1/DTD/svg11.dtd">
<svg width="1254pt" height="610pt" viewBox="0 0 1254 610" version="1.1" xmlns="http://www.w3.org/2000/svg">
<g id="#232427ff">
<path fill="#232427" opacity="1.00" d=" M 0.00 0.00 L 1254.00 0.00 L 1254.00 610.00 L 0.00 610.00 L 0.00 0.00 M 853.55 107.76 C 826.02 110.01 798.97 118.11 774.97 131.82 C 742.90 150.05 716.48 177.97 699.86 210.90 C 683.40 243.83 676.32 281.62 680.86 318.23 C 685.33 355.96 701.01 392.46 726.11 421.06 C 750.84 449.27 784.22 469.62 820.40 479.38 C 853.28 488.10 888.47 487.52 921.18 478.34 C 946.89 470.93 971.06 458.09 991.44 440.72 C 1012.62 422.88 1029.45 400.09 1041.10 375.02 C 1055.45 343.58 1060.68 308.15 1056.71 273.86 C 1053.58 245.70 1043.74 218.40 1028.48 194.54 C 992.19 136.35 921.87 101.30 853.55 107.76 M 295.60 124.64 C 270.53 138.35 245.90 152.84 221.19 167.19 C 203.01 177.60 184.27 187.10 166.75 198.65 C 167.34 224.98 166.76 251.32 167.10 277.66 C 175.94 274.63 184.01 269.80 192.00 265.04 C 214.89 251.81 237.50 238.10 260.81 225.62 C 260.08 277.40 259.68 329.21 260.51 381.00 C 260.50 399.39 260.55 417.80 261.10 436.18 C 261.41 438.09 263.11 439.30 264.63 440.28 C 276.34 447.79 288.87 453.92 300.67 461.27 C 307.92 465.77 315.10 470.63 323.35 473.10 C 323.50 351.99 323.59 230.88 323.30 109.77 C 313.28 113.13 304.85 119.72 295.60 124.64 M 337.63 110.27 C 337.50 123.17 337.06 136.06 337.16 148.96 C 337.38 201.31 337.14 253.66 337.18 306.01 C 337.08 361.74 337.37 417.46 337.55 473.18 C 342.17 471.52 346.57 469.30 350.82 466.85 C 367.32 457.22 383.74 447.45 400.44 438.15 C 400.76 404.52 399.93 370.87 401.01 337.25 C 416.67 343.47 429.72 354.93 445.84 360.13 C 448.84 337.37 446.10 314.45 445.77 291.62 C 432.97 283.80 419.89 276.46 406.80 269.17 C 403.92 267.40 400.18 265.58 399.60 261.88 C 398.63 249.85 399.43 237.78 400.04 225.76 C 416.72 233.18 431.58 243.94 447.65 252.49 C 463.09 260.66 477.35 271.11 493.67 277.57 C 494.15 251.27 493.69 224.97 493.97 198.66 C 482.34 191.26 470.21 184.66 458.34 177.65 C 432.29 162.63 406.06 147.92 379.98 132.95 C 366.08 125.01 352.44 116.46 337.63 110.27 M 598.89 292.89 C 590.48 298.86 590.26 313.37 598.97 319.14 C 608.93 325.15 621.11 325.34 631.42 330.53 C 634.86 332.33 636.84 336.34 636.53 340.17 C 635.89 344.46 632.47 347.86 628.64 349.59 C 622.29 352.29 614.97 351.70 608.59 349.46 C 602.55 346.67 599.75 340.15 597.47 334.33 C 594.75 334.14 592.03 334.09 589.31 334.16 C 591.02 339.85 592.20 346.09 596.27 350.65 C 607.12 360.94 625.23 361.76 637.45 353.43 C 645.98 347.58 647.64 334.01 640.74 326.31 C 632.28 318.88 620.57 318.01 610.23 314.82 C 606.50 313.73 602.47 311.68 601.08 307.79 C 600.00 302.57 604.06 297.57 608.74 295.78 C 614.55 293.70 621.06 294.12 626.84 296.08 C 631.23 297.99 632.79 302.92 635.73 306.33 C 637.89 307.82 640.76 307.57 643.26 308.04 C 641.62 302.06 640.34 294.83 634.49 291.45 C 623.49 285.97 609.06 285.19 598.89 292.89 M 521.19 288.52 C 525.33 301.65 530.67 314.35 535.69 327.15 C 539.89 337.38 543.37 347.91 548.01 357.96 C 550.84 357.95 553.67 357.95 556.51 357.90 C 565.88 334.86 575.23 311.80 584.03 288.53 C 581.05 288.52 578.09 288.52 575.13 288.54 C 567.44 308.87 559.71 329.19 552.08 349.54 C 544.78 329.24 537.74 308.84 530.44 288.53 C 527.35 288.53 524.27 288.53 521.19 288.52 Z" />
</g>
<g id="#0da0f1ff">
<path fill="#0da0f1" opacity="1.00" d=" M 853.55 107.76 C 921.87 101.30 992.19 136.35 1028.48 194.54 C 1043.74 218.40 1053.58 245.70 1056.71 273.86 C 1060.68 308.15 1055.45 343.58 1041.10 375.02 C 1029.45 400.09 1012.62 422.88 991.44 440.72 C 971.06 458.09 946.89 470.93 921.18 478.34 C 888.47 487.52 853.28 488.10 820.40 479.38 C 784.22 469.62 750.84 449.27 726.11 421.06 C 701.01 392.46 685.33 355.96 680.86 318.23 C 676.32 281.62 683.40 243.83 699.86 210.90 C 716.48 177.97 742.90 150.05 774.97 131.82 C 798.97 118.11 826.02 110.01 853.55 107.76 M 841.07 209.66 C 827.55 211.76 813.92 216.36 803.58 225.62 C 797.11 230.96 791.93 237.65 785.58 243.10 C 785.18 232.91 784.39 222.72 784.43 212.51 C 761.66 212.59 738.88 212.35 716.11 212.67 C 716.05 218.23 716.13 223.79 716.06 229.35 C 723.55 231.03 731.95 230.81 738.31 235.69 C 741.48 237.64 741.95 241.57 741.86 244.96 C 742.18 276.64 742.18 308.33 741.76 340.00 C 741.81 343.11 741.47 346.79 738.65 348.70 C 732.07 353.40 723.72 353.97 715.99 355.28 C 716.09 360.84 716.09 366.39 716.14 371.94 C 746.04 372.63 775.96 372.56 805.86 371.94 C 805.84 366.46 805.88 360.99 805.87 355.51 C 800.64 354.34 795.21 353.28 790.63 350.34 C 787.47 348.36 785.00 344.93 785.00 341.10 C 784.54 319.01 783.50 296.82 785.77 274.80 C 788.93 265.05 794.85 256.32 801.94 248.99 C 809.92 240.81 820.32 234.09 832.03 233.54 C 837.78 233.53 844.19 235.67 847.16 240.94 C 852.71 250.61 852.66 262.16 852.59 272.97 C 852.43 294.19 852.91 315.42 852.45 336.63 C 852.08 340.67 852.70 345.41 849.61 348.57 C 845.08 353.29 838.22 353.83 832.19 355.16 C 831.95 360.89 832.01 366.63 832.00 372.36 C 859.66 372.38 887.32 372.45 914.97 372.33 C 914.85 366.58 914.58 360.85 914.62 355.11 C 909.39 353.82 903.66 353.19 899.40 349.60 C 896.34 347.05 895.24 342.89 895.34 339.05 C 895.35 319.32 895.23 299.60 895.45 279.88 C 895.46 274.13 898.40 268.98 901.21 264.16 C 906.75 254.48 914.28 245.73 923.84 239.83 C 931.38 235.43 940.56 231.65 949.30 234.68 C 954.47 236.05 957.11 241.22 959.10 245.75 C 963.11 256.34 962.17 267.91 962.12 279.01 C 961.71 295.69 963.21 312.37 962.12 329.04 C 961.72 334.84 962.77 340.99 960.57 346.52 C 956.63 352.99 948.37 353.68 941.69 355.17 C 941.58 360.78 941.78 366.39 942.07 372.00 C 972.00 372.52 1001.95 372.61 1031.89 371.97 C 1031.93 366.38 1031.87 360.80 1031.82 355.22 C 1024.16 353.56 1015.75 353.54 1009.08 348.93 C 1005.24 346.32 1004.99 341.15 1004.88 336.96 C 1004.68 313.64 1005.09 290.33 1004.94 267.01 C 1004.72 254.83 1005.44 242.07 1000.40 230.66 C 996.63 221.84 988.38 215.77 979.62 212.47 C 966.62 207.77 952.22 208.49 939.05 212.08 C 921.24 217.32 906.60 229.95 895.45 244.43 C 892.18 235.24 889.09 225.16 881.23 218.76 C 869.98 210.07 854.90 207.69 841.07 209.66 Z" />
</g>
<g id="#f08801ff">
<path fill="#f08801" opacity="1.00" d=" M 295.60 124.64 C 304.85 119.72 313.28 113.13 323.30 109.77 C 323.59 230.88 323.50 351.99 323.35 473.10 C 315.10 470.63 307.92 465.77 300.67 461.27 C 288.87 453.92 276.34 447.79 264.63 440.28 C 263.11 439.30 261.41 438.09 261.10 436.18 C 260.55 417.80 260.50 399.39 260.51 381.00 C 259.68 329.21 260.08 277.40 260.81 225.62 C 237.50 238.10 214.89 251.81 192.00 265.04 C 184.01 269.80 175.94 274.63 167.10 277.66 C 166.76 251.32 167.34 224.98 166.75 198.65 C 184.27 187.10 203.01 177.60 221.19 167.19 C 245.90 152.84 270.53 138.35 295.60 124.64 Z" />
<path fill="#f08801" opacity="1.00" d=" M 337.63 110.27 C 352.44 116.46 366.08 125.01 379.98 132.95 C 406.06 147.92 432.29 162.63 458.34 177.65 C 470.21 184.66 482.34 191.26 493.97 198.66 C 493.69 224.97 494.15 251.27 493.67 277.57 C 477.35 271.11 463.09 260.66 447.65 252.49 C 431.58 243.94 416.72 233.18 400.04 225.76 C 399.43 237.78 398.63 249.85 399.60 261.88 C 400.18 265.58 403.92 267.40 406.80 269.17 C 419.89 276.46 432.97 283.80 445.77 291.62 C 446.10 314.45 448.84 337.37 445.84 360.13 C 429.72 354.93 416.67 343.47 401.01 337.25 C 399.93 370.87 400.76 404.52 400.44 438.15 C 383.74 447.45 367.32 457.22 350.82 466.85 C 346.57 469.30 342.17 471.52 337.55 473.18 C 337.37 417.46 337.08 361.74 337.18 306.01 C 337.14 253.66 337.38 201.31 337.16 148.96 C 337.06 136.06 337.50 123.17 337.63 110.27 Z" />
</g>
<g id="#fdfdfdff">
<path fill="#fdfdfd" opacity="1.00" d=" M 841.07 209.66 C 854.90 207.69 869.98 210.07 881.23 218.76 C 889.09 225.16 892.18 235.24 895.45 244.43 C 906.60 229.95 921.24 217.32 939.05 212.08 C 952.22 208.49 966.62 207.77 979.62 212.47 C 988.38 215.77 996.63 221.84 1000.40 230.66 C 1005.44 242.07 1004.72 254.83 1004.94 267.01 C 1005.09 290.33 1004.68 313.64 1004.88 336.96 C 1004.99 341.15 1005.24 346.32 1009.08 348.93 C 1015.75 353.54 1024.16 353.56 1031.82 355.22 C 1031.87 360.80 1031.93 366.38 1031.89 371.97 C 1001.95 372.61 972.00 372.52 942.07 372.00 C 941.78 366.39 941.58 360.78 941.69 355.17 C 948.37 353.68 956.63 352.99 960.57 346.52 C 962.77 340.99 961.72 334.84 962.12 329.04 C 963.21 312.37 961.71 295.69 962.12 279.01 C 962.17 267.91 963.11 256.34 959.10 245.75 C 957.11 241.22 954.47 236.05 949.30 234.68 C 940.56 231.65 931.38 235.43 923.84 239.83 C 914.28 245.73 906.75 254.48 901.21 264.16 C 898.40 268.98 895.46 274.13 895.45 279.88 C 895.23 299.60 895.35 319.32 895.34 339.05 C 895.24 342.89 896.34 347.05 899.40 349.60 C 903.66 353.19 909.39 353.82 914.62 355.11 C 914.58 360.85 914.85 366.58 914.97 372.33 C 887.32 372.45 859.66 372.38 832.00 372.36 C 832.01 366.63 831.95 360.89 832.19 355.16 C 838.22 353.83 845.08 353.29 849.61 348.57 C 852.70 345.41 852.08 340.67 852.45 336.63 C 852.91 315.42 852.43 294.19 852.59 272.97 C 852.66 262.16 852.71 250.61 847.16 240.94 C 844.19 235.67 837.78 233.53 832.03 233.54 C 820.32 234.09 809.92 240.81 801.94 248.99 C 794.85 256.32 788.93 265.05 785.77 274.80 C 783.50 296.82 784.54 319.01 785.00 341.10 C 785.00 344.93 787.47 348.36 790.63 350.34 C 795.21 353.28 800.64 354.34 805.87 355.51 C 805.88 360.99 805.84 366.46 805.86 371.94 C 775.96 372.56 746.04 372.63 716.14 371.94 C 716.09 366.39 716.09 360.84 715.99 355.28 C 723.72 353.97 732.07 353.40 738.65 348.70 C 741.47 346.79 741.81 343.11 741.76 340.00 C 742.18 308.33 742.18 276.64 741.86 244.96 C 741.95 241.57 741.48 237.64 738.31 235.69 C 731.95 230.81 723.55 231.03 716.06 229.35 C 716.13 223.79 716.05 218.23 716.11 212.67 C 738.88 212.35 761.66 212.59 784.43 212.51 C 784.39 222.72 785.18 232.91 785.58 243.10 C 791.93 237.65 797.11 230.96 803.58 225.62 C 813.92 216.36 827.55 211.76 841.07 209.66 Z" />
<path fill="#fdfdfd" opacity="1.00" d=" M 598.89 292.89 C 609.06 285.19 623.49 285.97 634.49 291.45 C 640.34 294.83 641.62 302.06 643.26 308.04 C 640.76 307.57 637.89 307.82 635.73 306.33 C 632.79 302.92 631.23 297.99 626.84 296.08 C 621.06 294.12 614.55 293.70 608.74 295.78 C 604.06 297.57 600.00 302.57 601.08 307.79 C 602.47 311.68 606.50 313.73 610.23 314.82 C 620.57 318.01 632.28 318.88 640.74 326.31 C 647.64 334.01 645.98 347.58 637.45 353.43 C 625.23 361.76 607.12 360.94 596.27 350.65 C 592.20 346.09 591.02 339.85 589.31 334.16 C 592.03 334.09 594.75 334.14 597.47 334.33 C 599.75 340.15 602.55 346.67 608.59 349.46 C 614.97 351.70 622.29 352.29 628.64 349.59 C 632.47 347.86 635.89 344.46 636.53 340.17 C 636.84 336.34 634.86 332.33 631.42 330.53 C 621.11 325.34 608.93 325.15 598.97 319.14 C 590.26 313.37 590.48 298.86 598.89 292.89 Z" />
<path fill="#fdfdfd" opacity="1.00" d=" M 521.19 288.52 C 524.27 288.53 527.35 288.53 530.44 288.53 C 537.74 308.84 544.78 329.24 552.08 349.54 C 559.71 329.19 567.44 308.87 575.13 288.54 C 578.09 288.52 581.05 288.52 584.03 288.53 C 575.23 311.80 565.88 334.86 556.51 357.90 C 553.67 357.95 550.84 357.95 548.01 357.96 C 543.37 347.91 539.89 337.38 535.69 327.15 C 530.67 314.35 525.33 301.65 521.19 288.52 Z" />
</g>
</svg>
