<?xml version="1.0" encoding="UTF-8" ?>
<!DOCTYPE svg PUBLIC "-//W3C//DTD SVG 1.1//EN" "http://www.w3.org/Graphics/SVG/1.1/DTD/svg11.dtd">
<svg width="1500pt" height="844pt" viewBox="0 0 1500 844" version="1.1" xmlns="http://www.w3.org/2000/svg">
<g id="#131722ff">
<path fill="#131722" opacity="1.00" d=" M 0.00 0.00 L 1500.00 0.00 L 1500.00 844.00 L 0.00 844.00 L 0.00 0.00 M 749.38 343.37 C 735.93 345.20 723.06 352.09 714.80 362.98 C 703.66 378.26 698.75 397.12 696.98 415.69 C 697.03 426.47 696.95 437.25 697.02 448.03 C 698.23 455.27 699.01 462.60 701.03 469.67 C 704.60 482.09 709.41 494.79 718.84 504.01 C 726.80 512.27 737.75 517.25 748.97 518.99 C 758.01 518.67 767.40 520.33 776.10 517.18 C 790.16 513.62 801.81 503.14 808.27 490.32 C 812.71 480.98 816.31 471.18 818.09 460.97 C 819.79 453.40 819.79 445.62 820.97 437.98 C 820.80 432.67 821.21 427.32 820.77 422.03 C 819.61 418.14 820.44 414.04 819.42 410.13 C 818.27 399.28 815.62 388.57 811.30 378.53 C 807.68 369.41 802.35 360.64 794.48 354.60 C 786.02 347.44 775.07 343.59 764.09 342.96 C 759.19 343.24 754.22 342.50 749.38 343.37 M 610.99 345.98 C 607.69 349.07 605.37 352.99 602.55 356.49 C 576.49 390.79 550.56 425.19 524.55 459.53 C 522.21 462.51 523.25 466.49 523.06 469.98 C 523.31 473.32 522.26 476.98 524.00 480.07 C 553.99 479.92 583.99 480.03 613.99 480.02 C 614.14 491.02 614.03 502.02 614.04 513.02 C 614.06 514.39 614.37 515.71 614.98 516.96 C 623.01 516.93 631.04 516.93 639.07 516.98 C 640.48 517.11 641.80 516.62 643.06 516.02 C 643.01 504.08 642.85 492.13 643.18 480.19 C 650.13 479.87 657.09 480.01 664.04 480.05 C 664.81 478.49 665.09 476.78 664.99 475.06 C 664.83 468.00 665.08 460.93 664.86 453.87 C 657.74 452.08 650.27 453.56 643.00 452.99 C 643.00 417.32 643.00 381.66 643.00 346.00 C 632.33 345.99 621.66 346.02 610.99 345.98 M 928.98 345.97 C 922.69 353.07 917.42 360.98 911.59 368.45 C 888.49 398.85 865.59 429.41 842.44 459.78 C 840.56 462.08 841.07 465.20 841.04 467.95 C 841.24 471.98 840.41 476.17 841.97 480.03 C 871.98 479.97 901.98 480.01 931.99 480.01 C 932.15 491.01 932.00 502.03 932.06 513.04 C 932.03 514.40 932.58 515.67 933.03 516.95 C 942.01 516.82 951.01 517.17 959.98 516.79 C 960.22 516.60 960.70 516.22 960.94 516.03 C 961.21 504.11 960.70 492.16 961.22 480.23 C 968.25 479.83 975.30 480.01 982.34 480.08 C 983.38 476.81 982.84 473.35 982.94 469.99 C 982.86 464.95 983.08 459.91 982.90 454.88 C 982.64 454.46 982.13 453.62 981.87 453.20 C 975.54 452.76 969.19 453.29 962.86 453.00 C 961.01 453.36 960.91 451.24 961.01 450.02 C 960.99 415.35 961.00 380.67 961.00 346.00 C 950.33 345.98 939.65 346.03 928.98 345.97 Z" />
<path fill="#131722" opacity="1.00" d=" M 751.49 371.28 C 755.63 370.63 759.88 370.95 764.06 371.04 C 772.30 372.73 779.23 378.86 782.83 386.38 C 786.76 394.06 788.71 402.57 789.87 411.07 C 791.95 421.91 790.73 433.04 790.98 444.02 C 788.98 456.71 787.34 470.21 779.77 481.02 C 772.63 491.24 757.83 494.94 746.83 489.02 C 739.63 485.30 734.75 478.20 732.28 470.64 C 729.41 463.40 728.20 455.67 727.03 448.02 C 727.53 443.60 725.73 439.41 726.00 435.02 C 726.13 429.68 725.51 424.26 726.91 419.05 C 726.68 412.95 728.13 407.04 729.24 401.09 C 731.55 392.72 733.98 383.69 740.71 377.68 C 743.67 374.62 747.55 372.74 751.49 371.28 Z" />
<path fill="#131722" opacity="1.00" d=" M 608.87 389.97 C 610.49 387.89 611.82 385.53 613.96 383.92 C 614.14 406.95 614.08 429.99 613.99 453.03 C 596.80 453.05 579.62 453.12 562.43 453.00 C 562.63 452.37 563.01 451.11 563.21 450.48 C 567.11 446.91 569.52 442.05 572.96 438.06 C 584.93 422.03 596.99 406.07 608.87 389.97 Z" />
<path fill="#131722" opacity="1.00" d=" M 881.10 451.12 C 898.23 429.07 914.55 406.36 931.50 384.17 C 932.20 384.96 932.54 385.89 932.50 386.95 C 932.35 405.31 932.48 423.66 932.43 442.02 C 932.34 445.70 932.79 449.42 932.00 453.06 C 915.10 453.50 898.15 452.81 881.25 453.49 C 881.21 452.90 881.14 451.71 881.10 451.12 Z" />
</g>
<g id="#49ae8bff">
<path fill="#49ae8b" opacity="1.00" d=" M 749.38 343.37 C 754.22 342.50 759.19 343.24 764.09 342.96 C 775.07 343.59 786.02 347.44 794.48 354.60 C 802.35 360.64 807.68 369.41 811.30 378.53 C 815.62 388.57 818.27 399.28 819.42 410.13 C 820.44 414.04 819.61 418.14 820.77 422.03 C 821.21 427.32 820.80 432.67 820.97 437.98 C 819.79 445.62 819.79 453.40 818.09 460.97 C 816.31 471.18 812.71 480.98 808.27 490.32 C 801.81 503.14 790.16 513.62 776.10 517.18 C 767.40 520.33 758.01 518.67 748.97 518.99 C 737.75 517.25 726.80 512.27 718.84 504.01 C 709.41 494.79 704.60 482.09 701.03 469.67 C 699.01 462.60 698.23 455.27 697.02 448.03 C 696.95 437.25 697.03 426.47 696.98 415.69 C 698.75 397.12 703.66 378.26 714.80 362.98 C 723.06 352.09 735.93 345.20 749.38 343.37 M 751.49 371.28 C 747.55 372.74 743.67 374.62 740.71 377.68 C 733.98 383.69 731.55 392.72 729.24 401.09 C 728.13 407.04 726.68 412.95 726.91 419.05 C 725.51 424.26 726.13 429.68 726.00 435.02 C 725.73 439.41 727.53 443.60 727.03 448.02 C 728.20 455.67 729.41 463.40 732.28 470.64 C 734.75 478.20 739.63 485.30 746.83 489.02 C 757.83 494.94 772.63 491.24 779.77 481.02 C 787.34 470.21 788.98 456.71 790.98 444.02 C 790.73 433.04 791.95 421.91 789.87 411.07 C 788.71 402.57 786.76 394.06 782.83 386.38 C 779.23 378.86 772.30 372.73 764.06 371.04 C 759.88 370.95 755.63 370.63 751.49 371.28 Z" />
<path fill="#49ae8b" opacity="1.00" d=" M 610.99 345.98 C 621.66 346.02 632.33 345.99 643.00 346.00 C 643.00 381.66 643.00 417.32 643.00 452.99 C 650.27 453.56 657.74 452.08 664.86 453.87 C 665.08 460.93 664.83 468.00 664.99 475.06 C 665.09 476.78 664.81 478.49 664.04 480.05 C 657.09 480.01 650.13 479.87 643.18 480.19 C 642.85 492.13 643.01 504.08 643.06 516.02 C 641.80 516.62 640.48 517.11 639.07 516.98 C 631.04 516.93 623.01 516.93 614.98 516.96 C 614.37 515.71 614.06 514.39 614.04 513.02 C 614.03 502.02 614.14 491.02 613.99 480.02 C 583.99 480.03 553.99 479.92 524.00 480.07 C 522.26 476.98 523.31 473.32 523.06 469.98 C 523.25 466.49 522.21 462.51 524.55 459.53 C 550.56 425.19 576.49 390.79 602.55 356.49 C 605.37 352.99 607.69 349.07 610.99 345.98 M 608.87 389.97 C 596.99 406.07 584.93 422.03 572.96 438.06 C 569.52 442.05 567.11 446.91 563.21 450.48 C 563.01 451.11 562.63 452.37 562.43 453.00 C 579.62 453.12 596.80 453.05 613.99 453.03 C 614.08 429.99 614.14 406.95 613.96 383.92 C 611.82 385.53 610.49 387.89 608.87 389.97 Z" />
<path fill="#49ae8b" opacity="1.00" d=" M 928.98 345.97 C 939.65 346.03 950.33 345.98 961.00 346.00 C 961.00 380.67 960.99 415.35 961.01 450.02 C 960.91 451.24 961.01 453.36 962.86 453.00 C 969.19 453.29 975.54 452.76 981.87 453.20 C 982.13 453.62 982.64 454.46 982.90 454.88 C 983.08 459.91 982.86 464.95 982.94 469.99 C 982.84 473.35 983.38 476.81 982.34 480.08 C 975.30 480.01 968.25 479.83 961.22 480.23 C 960.70 492.16 961.21 504.11 960.94 516.03 C 960.70 516.22 960.22 516.60 959.98 516.79 C 951.01 517.17 942.01 516.82 933.03 516.95 C 932.58 515.67 932.03 514.40 932.06 513.04 C 932.00 502.03 932.15 491.01 931.99 480.01 C 901.98 480.01 871.98 479.97 841.97 480.03 C 840.41 476.17 841.24 471.98 841.04 467.95 C 841.07 465.20 840.56 462.08 842.44 459.78 C 865.59 429.41 888.49 398.85 911.59 368.45 C 917.42 360.98 922.69 353.07 928.98 345.97 M 881.10 451.12 C 881.14 451.71 881.21 452.90 881.25 453.49 C 898.15 452.81 915.10 453.50 932.00 453.06 C 932.79 449.42 932.34 445.70 932.43 442.02 C 932.48 423.66 932.35 405.31 932.50 386.95 C 932.54 385.89 932.20 384.96 931.50 384.17 C 914.55 406.36 898.23 429.07 881.10 451.12 Z" />
</g>
</svg>
